<svg width="145" height="90" viewBox="0 0 145 90" fill="none" xmlns="http://www.w3.org/2000/svg">
<path d="M11.1274 75.4577H6.63496V88.8229H4.56154V75.4577H0V73.3694H11.1274V75.4577Z" fill="white"/>
<path d="M26.7472 81.0961C26.7472 85.4815 23.6371 89.0317 19.2829 89.0317C14.9287 89.0317 11.8185 85.4815 11.8185 81.0961C11.8185 76.7106 14.9287 73.2301 19.2829 73.2301C23.6371 73.2301 26.7472 76.7106 26.7472 81.0961ZM24.5356 81.0961C24.5356 77.894 22.393 75.3184 19.2138 75.3184C16.0345 75.3184 13.892 77.894 13.892 81.0961C13.892 84.2982 16.0345 86.8738 19.2138 86.8738C22.4621 86.8738 24.5356 84.2982 24.5356 81.0961Z" fill="white"/>
<path d="M39.6716 73.3694V88.8925H37.5981V82.6276C36.4923 83.3237 34.6262 83.6717 33.5204 83.5325C30.9632 83.3933 28.7515 81.9315 28.7515 77.8941V73.3694H30.8941V77.7548C30.8941 80.2608 31.7925 81.5138 33.5895 81.653C35.11 81.7922 36.6997 81.2354 37.6673 80.6089V73.3694H39.6716Z" fill="white"/>
<path d="M46.5829 81.7227L44.6477 83.9502V88.8229H42.5052V73.2998H44.6477V80.6785L51.0062 73.2998H53.7708L48.0343 79.9824L54.2546 88.7533H51.6283L46.5829 81.7227Z" fill="white"/>
<path d="M64.4835 84.5767H59.0235L57.503 88.8229H55.2222L60.7514 73.2998H62.8248L68.3539 88.8229H66.0732L64.4835 84.5767ZM63.7233 82.4884L61.719 76.5019L59.7147 82.4884H63.7233Z" fill="white"/>
<path d="M87.0839 78.3118C87.0839 81.0962 85.1487 83.3237 82.0385 83.3237H78.3755V88.8229H76.3021V73.2998H82.0385C85.2178 73.3694 87.0839 75.5969 87.0839 78.3118ZM84.9413 78.3118C84.9413 76.7803 83.9737 75.4577 82.1077 75.4577H78.4446V81.2354H82.1077C83.9046 81.2354 84.9413 79.8432 84.9413 78.3118Z" fill="white"/>
<path d="M103.671 81.0961C103.671 85.4815 100.561 89.0317 96.207 89.0317C91.8528 89.0317 88.7426 85.4815 88.7426 81.0961C88.7426 76.7106 91.8528 73.2301 96.207 73.2301C100.561 73.2301 103.671 76.7106 103.671 81.0961ZM101.529 81.0961C101.529 77.894 99.3862 75.3184 96.207 75.3184C93.0277 75.3184 90.8852 77.894 90.8852 81.0961C90.8852 84.2982 93.0277 86.8738 96.207 86.8738C99.3862 86.8738 101.529 84.2982 101.529 81.0961Z" fill="white"/>
<path d="M117.287 84.4374L119.222 85.4119C117.978 87.5699 115.628 89.0317 112.863 89.0317C108.509 89.0317 105.399 85.4815 105.399 81.0961C105.399 76.7106 108.509 73.2301 112.863 73.2301C115.628 73.2301 117.909 74.6919 119.222 76.8499L117.287 77.8244C116.388 76.293 114.799 75.3184 112.863 75.3184C109.684 75.3184 107.542 77.894 107.542 81.0961C107.542 84.2982 109.684 86.8738 112.863 86.8738C114.868 86.8738 116.388 85.8992 117.287 84.4374Z" fill="white"/>
<path d="M131.593 75.4577H127.032V88.8229H124.958V75.4577H120.397V73.3694H131.524V75.4577H131.593Z" fill="white"/>
<path d="M140.233 84.5767H134.773L133.252 88.8229H130.971L136.5 73.2998H138.574L144.103 88.8229H141.684L140.233 84.5767ZM139.472 82.4884L137.468 76.5019L135.464 82.4884H139.472Z" fill="white"/>
<path d="M79.2048 12.6692H69.4597V31.3248H79.2048C82.315 31.3248 84.8031 30.4895 86.6 28.8188C88.397 27.1482 89.2264 24.851 89.2264 21.997C89.2264 19.0733 88.3279 16.7762 86.6 15.1752C84.8031 13.5045 82.3841 12.6692 79.2048 12.6692Z" fill="white"/>
<path d="M42.4361 0V59.5169H101.598V0H42.4361ZM54.462 49.9803C52.4577 49.9803 50.7989 48.3097 50.7989 46.1517C50.7989 44.133 52.4577 42.4624 54.462 42.4624C56.6045 42.4624 58.2632 44.133 58.2632 46.1517C58.2632 48.3097 56.6045 49.9803 54.462 49.9803ZM89.572 31.2551C87.153 33.6218 83.9737 34.8052 80.1033 34.8052H69.5289V48.3097C69.5289 49.3538 68.6995 50.2587 67.5937 50.2587C66.5569 50.2587 65.6585 49.4234 65.6585 48.3097V9.25819H80.1033C83.9737 9.25819 87.153 10.4416 89.572 12.8083C91.991 15.1751 93.1659 18.2379 93.1659 22.0665C93.1659 25.8951 91.991 28.8883 89.572 31.2551Z" fill="white"/>
</svg>
