<svg width="503" height="89" viewBox="0 0 503 89" fill="none" xmlns="http://www.w3.org/2000/svg">
<path d="M147.913 44.9077H135.726V80.3539H130.187V44.9077H118V39.3693H147.728V44.9077H147.913Z" fill="#FF7039"/>
<path d="M189.643 59.8615C189.643 71.4923 181.333 80.9077 169.701 80.9077C158.068 80.9077 149.759 71.4923 149.759 59.8615C149.759 48.2308 158.068 39 169.701 39C181.333 39 189.643 48.4154 189.643 59.8615ZM183.918 59.8615C183.918 51.3692 178.194 44.5385 169.701 44.5385C161.207 44.5385 155.483 51.3692 155.483 59.8615C155.483 68.3538 161.207 75.1846 169.701 75.1846C178.194 75.3692 183.918 68.3538 183.918 59.8615Z" fill="#FF7039"/>
<path d="M224.171 39.3693V80.5385H218.632V63.9231C215.678 65.7693 210.692 66.6923 207.738 66.3231C200.906 65.9539 194.997 62.077 194.997 51.3693V39.3693H200.721V51C200.721 57.6462 203.122 60.9693 207.922 61.3385C211.985 61.7077 216.232 60.2308 218.817 58.5693V39.3693H224.171Z" fill="#FF7039"/>
<path d="M242.636 61.5231L237.466 67.4308V80.3539H231.742V39.3693H237.466V58.9385L254.453 39.3693H261.839L246.513 57.0923L263.132 80.3539H256.115L242.636 61.5231Z" fill="#FF7039"/>
<path d="M290.459 69.0923H275.872L271.81 80.3538H265.717L280.488 39.1846H286.028L300.799 80.3538H294.706L290.459 69.0923ZM288.428 63.7384L283.073 47.8615L277.719 63.7384H288.428Z" fill="#FF7039"/>
<path d="M350.838 52.477C350.838 59.8616 345.668 65.7693 337.359 65.7693H327.573V80.3539H322.033V39.3693H337.359C345.853 39.3693 350.838 45.277 350.838 52.477ZM345.114 52.477C345.114 48.4154 342.529 44.9077 337.544 44.9077H327.573V60.2308H337.359C342.344 60.2308 345.114 56.5385 345.114 52.477Z" fill="#FF7039"/>
<path d="M395.153 59.8615C395.153 71.4923 386.844 80.9077 375.211 80.9077C363.579 80.9077 355.27 71.4923 355.27 59.8615C355.27 48.2308 363.579 39 375.211 39C386.844 39 395.153 48.4154 395.153 59.8615ZM389.429 59.8615C389.429 51.3692 383.705 44.5385 375.211 44.5385C366.718 44.5385 360.994 51.3692 360.994 59.8615C360.994 68.3538 366.718 75.1846 375.211 75.1846C383.705 75.3692 389.429 68.3538 389.429 59.8615Z" fill="#FF7039"/>
<path d="M431.528 68.7231L436.698 71.3077C433.375 77.0308 427.097 80.9077 419.711 80.9077C408.078 80.9077 399.769 71.4923 399.769 59.8615C399.769 48.2308 408.078 39 419.711 39C427.097 39 433.19 42.8769 436.698 48.6L431.528 51.1846C429.128 47.1231 424.881 44.5385 419.711 44.5385C411.217 44.5385 405.493 51.3692 405.493 59.8615C405.493 68.3538 411.217 75.1846 419.711 75.1846C425.066 75.1846 429.128 72.6 431.528 68.7231Z" fill="#FF7039"/>
<path d="M469.75 44.9077H457.563V80.3539H452.024V44.9077H439.837V39.3693H469.75V44.9077Z" fill="#FF7039"/>
<path d="M492.831 69.0923H478.244L474.181 80.3538H467.904L482.675 39.1846H488.215L502.986 80.3538H496.893L492.831 69.0923ZM490.8 63.7384L485.445 47.8615L480.09 63.7384H490.8Z" fill="#FF7039"/>
<path d="M89.0146 0H0V89H89.0146V0Z" fill="url(#paint0_linear_116:9)"/>
<path d="M23.8285 69.0093C23.8285 72.2954 21.3635 74.76 18.0768 74.76C15.064 74.76 12.599 72.2954 12.599 69.0093C12.599 65.997 15.064 63.5323 18.0768 63.5323C21.3635 63.5323 23.8285 65.997 23.8285 69.0093Z" fill="white"/>
<path d="M56.6954 13.6924C62.4472 13.6924 67.3772 15.3355 70.9378 18.8955C74.4984 22.4555 76.4156 27.1108 76.4156 32.5878C76.4156 38.0647 74.4984 42.9939 70.9378 46.2801C67.3772 49.8401 62.4472 51.4832 56.6954 51.4832H40.8098V71.7478C40.8098 73.3908 39.4403 74.4862 38.0708 74.4862H37.797C36.1536 74.4862 35.058 73.117 35.058 71.7478V13.6924H56.6954ZM40.8098 46.8278H55.326C59.9821 46.8278 63.8166 45.4585 66.5555 42.9939C69.2944 40.5293 70.6639 37.2432 70.6639 32.8616C70.6639 28.4801 69.2944 25.1939 66.5555 22.7293C63.8166 20.2647 60.256 18.8955 55.326 18.8955H40.8098V46.8278Z" fill="white"/>
<defs>
<linearGradient id="paint0_linear_116:9" x1="0" y1="0" x2="88.9474" y2="88.962" gradientUnits="userSpaceOnUse">
<stop stop-color="#FF5642"/>
<stop offset="1" stop-color="#FF7039"/>
</linearGradient>
</defs>
</svg>
