<svg width="90" height="89" viewBox="0 0 90 89" fill="none" xmlns="http://www.w3.org/2000/svg">
<path d="M89.0146 0H0V89H89.0146V0Z" fill="url(#paint0_linear_126:142)"/>
<path d="M23.8287 69.0093C23.8287 72.2954 21.3636 74.76 18.0769 74.76C15.0641 74.76 12.5991 72.2954 12.5991 69.0093C12.5991 65.997 15.0641 63.5323 18.0769 63.5323C21.3636 63.5323 23.8287 65.997 23.8287 69.0093Z" fill="white"/>
<path d="M56.6955 13.6924C62.4472 13.6924 67.3773 15.3355 70.9378 18.8955C74.4984 22.4555 76.4157 27.1108 76.4157 32.5878C76.4157 38.0647 74.4984 42.9939 70.9378 46.2801C67.3773 49.8401 62.4472 51.4832 56.6955 51.4832H40.8098V71.7478C40.8098 73.3908 39.4404 74.4862 38.0709 74.4862H37.797C36.1537 74.4862 35.0581 73.117 35.0581 71.7478V13.6924H56.6955ZM40.8098 46.8278H55.326C59.9822 46.8278 63.8167 45.4585 66.5556 42.9939C69.2945 40.5293 70.6639 37.2432 70.6639 32.8616C70.6639 28.4801 69.2945 25.1939 66.5556 22.7293C63.8167 20.2647 60.2561 18.8955 55.326 18.8955H40.8098V46.8278Z" fill="white"/>
<defs>
<linearGradient id="paint0_linear_126:142" x1="0" y1="0" x2="88.9474" y2="88.962" gradientUnits="userSpaceOnUse">
<stop stop-color="#FF5642"/>
<stop offset="1" stop-color="#FF7039"/>
</linearGradient>
</defs>
</svg>
